# xmcd
#
# Track frame offsets: 
#        150
#        20372
#        36278
#        52494
#        73230
#        92112
#        109740
#        127980
#        144576
#        160813
#        178755
#
# Disc length: 2678 seconds
#
# Revision: 0
# Processed by: cddbd v1.5.2PL0 Copyright (c) Steve Scherf et al.
# Submitted via: ExactAudioCopy v1.3
#
DISCID=a00a740b
DTITLE=Dana Gillespie - Methods Of Release
DYEAR=1993
DGENRE=Blues, Pop
TTITLE0=The Politics Of Ecstacy
TTITLE1=Overseas Male
TTITLE2=Oh, What A Night
TTITLE3=Your Love Is In Me
TTITLE4=Methods Of Release
TTITLE5=Love Is A Strange Thing
TTITLE6=Sun Arise
TTITLE7=Let's Get Wet
TTITLE8=Divine Romance
TTITLE9=Still Around
TTITLE10=The Circle Is Complete
EXTD=
EXTT0=
EXTT1=
EXTT2=
EXTT3=
EXTT4=
EXTT5=
EXTT6=
EXTT7=
EXTT8=
EXTT9=
EXTT10=
PLAYORDER=
